<svg width="78" height="62" viewBox="0 0 78 62" fill="none" xmlns="http://www.w3.org/2000/svg">
<mask id="path-1-inside-1" fill="white">
<path fill-rule="evenodd" clip-rule="evenodd" d="M62.6934 -40.091C62.7495 -40.2995 62.8311 -40.4986 62.9395 -40.6866C64.172 -42.8254 68.3955 -42.7087 72.3729 -40.4259C76.3502 -38.1432 78.5753 -34.5589 77.3427 -32.4201C77.2344 -32.2321 77.1029 -32.0616 76.9506 -31.9084L77.0239 -31.8663L54.8819 6.55494C65.255 16.4654 67.9386 32.5077 60.4534 45.4961C51.6494 60.7731 32.1112 66.0402 16.8137 57.2604C1.51627 48.4807 -3.74768 28.9789 5.05638 13.7019C12.3111 1.11339 26.8543 -4.67832 40.3075 -1.41453L62.6207 -40.1328L62.6934 -40.091Z"/>
</mask>
<path fill-rule="evenodd" clip-rule="evenodd" d="M62.6934 -40.091C62.7495 -40.2995 62.8311 -40.4986 62.9395 -40.6866C64.172 -42.8254 68.3955 -42.7087 72.3729 -40.4259C76.3502 -38.1432 78.5753 -34.5589 77.3427 -32.4201C77.2344 -32.2321 77.1029 -32.0616 76.9506 -31.9084L77.0239 -31.8663L54.8819 6.55494C65.255 16.4654 67.9386 32.5077 60.4534 45.4961C51.6494 60.7731 32.1112 66.0402 16.8137 57.2604C1.51627 48.4807 -3.74768 28.9789 5.05638 13.7019C12.3111 1.11339 26.8543 -4.67832 40.3075 -1.41453L62.6207 -40.1328L62.6934 -40.091Z" fill="#15339C"/>
<path fill-rule="evenodd" clip-rule="evenodd" d="M62.6934 -40.091C62.7495 -40.2995 62.8311 -40.4986 62.9395 -40.6866C64.172 -42.8254 68.3955 -42.7087 72.3729 -40.4259C76.3502 -38.1432 78.5753 -34.5589 77.3427 -32.4201C77.2344 -32.2321 77.1029 -32.0616 76.9506 -31.9084L77.0239 -31.8663L54.8819 6.55494C65.255 16.4654 67.9386 32.5077 60.4534 45.4961C51.6494 60.7731 32.1112 66.0402 16.8137 57.2604C1.51627 48.4807 -3.74768 28.9789 5.05638 13.7019C12.3111 1.11339 26.8543 -4.67832 40.3075 -1.41453L62.6207 -40.1328L62.6934 -40.091Z" fill="url(#paint0_linear)"/>
<path d="M62.9395 -40.6866L62.0731 -41.1859L62.0731 -41.1859L62.9395 -40.6866ZM62.6934 -40.091L62.1957 -39.2237L63.3218 -38.5773L63.6591 -39.8312L62.6934 -40.091ZM72.3729 -40.4259L72.8706 -41.2933L72.3729 -40.4259ZM77.3427 -32.4201L76.4763 -32.9194L76.4763 -32.9194L77.3427 -32.4201ZM76.9506 -31.9084L76.2415 -32.6135L75.3228 -31.6896L76.4528 -31.0411L76.9506 -31.9084ZM77.0239 -31.8663L77.8903 -31.367L78.3905 -32.2349L77.5217 -32.7336L77.0239 -31.8663ZM54.8819 6.55494L54.0155 6.05563L53.6235 6.73574L54.1911 7.27799L54.8819 6.55494ZM60.4534 45.4961L61.3198 45.9954L60.4534 45.4961ZM16.8137 57.2604L17.3115 56.3931L16.8137 57.2604ZM5.05638 13.7019L5.9228 14.2012L5.92281 14.2012L5.05638 13.7019ZM40.3075 -1.41453L40.0717 -0.442722L40.7998 -0.266086L41.1739 -0.915219L40.3075 -1.41453ZM62.6207 -40.1328L63.1185 -41.0001L62.2527 -41.497L61.7542 -40.6321L62.6207 -40.1328ZM62.0731 -41.1859C61.9202 -40.9207 61.8058 -40.6408 61.7278 -40.3508L63.6591 -39.8312C63.6933 -39.9582 63.7421 -40.0765 63.8059 -40.1873L62.0731 -41.1859ZM72.8706 -41.2933C70.7672 -42.5005 68.5569 -43.1614 66.6545 -43.214C64.7986 -43.2652 62.9608 -42.7264 62.0731 -41.1859L63.8059 -40.1873C64.1507 -40.7856 65.041 -41.2578 66.5993 -41.2147C68.111 -41.1729 70.0012 -40.6341 71.8751 -39.5586L72.8706 -41.2933ZM78.2091 -31.9208C79.0975 -33.4623 78.6395 -35.3204 77.6611 -36.8965C76.6584 -38.5117 74.974 -40.086 72.8706 -41.2933L71.8751 -39.5586C73.749 -38.4831 75.1659 -37.1239 75.9619 -35.8416C76.7823 -34.5201 76.8205 -33.5167 76.4763 -32.9194L78.2091 -31.9208ZM77.6597 -31.2032C77.8714 -31.4162 78.0563 -31.6556 78.2091 -31.9208L76.4763 -32.9194C76.4125 -32.8087 76.3344 -32.7069 76.2415 -32.6135L77.6597 -31.2032ZM76.4528 -31.0411L76.5261 -30.999L77.5217 -32.7336L77.4484 -32.7757L76.4528 -31.0411ZM76.1575 -32.3656L54.0155 6.05563L55.7483 7.05426L77.8903 -31.367L76.1575 -32.3656ZM54.1911 7.27799C64.2388 16.8776 66.8368 32.4169 59.587 44.9968L61.3198 45.9954C69.0404 32.5985 66.2712 16.0533 55.5727 5.8319L54.1911 7.27799ZM59.587 44.9968C51.0585 59.7956 32.1308 64.8984 17.3115 56.3931L16.316 58.1277C32.0916 67.1819 52.2402 61.7506 61.3198 45.9954L59.587 44.9968ZM17.3115 56.3931C2.49338 47.8885 -2.605 28.9988 5.9228 14.2012L4.18996 13.2026C-4.89036 28.9589 0.53915 49.0729 16.316 58.1277L17.3115 56.3931ZM5.92281 14.2012C12.9496 2.00817 27.038 -3.60475 40.0717 -0.442722L40.5433 -2.38634C26.6707 -5.75188 11.6726 0.218615 4.18996 13.2026L5.92281 14.2012ZM41.1739 -0.915219L63.4871 -39.6335L61.7542 -40.6321L39.4411 -1.91385L41.1739 -0.915219ZM62.1229 -39.2655L62.1957 -39.2237L63.1912 -40.9583L63.1185 -41.0001L62.1229 -39.2655Z" fill="black" mask="url(#path-1-inside-1)"/>
<defs>
<linearGradient id="paint0_linear" x1="32.9647" y1="-36.4284" x2="49.7809" y2="58.9933" gradientUnits="userSpaceOnUse">
<stop stop-color="#15339C"/>
<stop offset="1" stop-color="#99D5BC"/>
</linearGradient>
</defs>
</svg>
