<svg width="77" height="105" viewBox="0 0 77 105" fill="none" xmlns="http://www.w3.org/2000/svg">
<mask id="path-1-inside-1" fill="white">
<path fill-rule="evenodd" clip-rule="evenodd" d="M15.0522 2.90899C14.9961 2.70054 14.9145 2.50139 14.8061 2.3134C13.5736 0.174625 9.35009 0.291323 5.37275 2.57405C1.3954 4.85678 -0.829677 8.44112 0.402892 10.5799C0.511223 10.7679 0.642666 10.9384 0.79501 11.0916L0.7217 11.1337L22.8637 49.5549C12.4906 59.4654 9.80701 75.5077 17.2922 88.4961C26.0962 103.773 45.6344 109.04 60.9319 100.26C76.2293 91.4807 81.4933 71.9789 72.6892 56.7019C65.4345 44.1134 50.8913 38.3217 37.4381 41.5855L15.1249 2.86722L15.0522 2.90899Z"/>
</mask>
<path fill-rule="evenodd" clip-rule="evenodd" d="M15.0522 2.90899C14.9961 2.70054 14.9145 2.50139 14.8061 2.3134C13.5736 0.174625 9.35009 0.291323 5.37275 2.57405C1.3954 4.85678 -0.829677 8.44112 0.402892 10.5799C0.511223 10.7679 0.642666 10.9384 0.79501 11.0916L0.7217 11.1337L22.8637 49.5549C12.4906 59.4654 9.80701 75.5077 17.2922 88.4961C26.0962 103.773 45.6344 109.04 60.9319 100.26C76.2293 91.4807 81.4933 71.9789 72.6892 56.7019C65.4345 44.1134 50.8913 38.3217 37.4381 41.5855L15.1249 2.86722L15.0522 2.90899Z" fill="#15339C"/>
<path fill-rule="evenodd" clip-rule="evenodd" d="M15.0522 2.90899C14.9961 2.70054 14.9145 2.50139 14.8061 2.3134C13.5736 0.174625 9.35009 0.291323 5.37275 2.57405C1.3954 4.85678 -0.829677 8.44112 0.402892 10.5799C0.511223 10.7679 0.642666 10.9384 0.79501 11.0916L0.7217 11.1337L22.8637 49.5549C12.4906 59.4654 9.80701 75.5077 17.2922 88.4961C26.0962 103.773 45.6344 109.04 60.9319 100.26C76.2293 91.4807 81.4933 71.9789 72.6892 56.7019C65.4345 44.1134 50.8913 38.3217 37.4381 41.5855L15.1249 2.86722L15.0522 2.90899Z" fill="url(#paint0_linear)"/>
<path d="M14.8061 2.3134L15.6725 1.81409L15.6725 1.8141L14.8061 2.3134ZM15.0522 2.90899L15.5499 3.77628L14.4238 4.42267L14.0865 3.16875L15.0522 2.90899ZM5.37275 2.57405L4.87497 1.70675L5.37275 2.57405ZM0.402892 10.5799L1.26932 10.0806L1.26932 10.0806L0.402892 10.5799ZM0.79501 11.0916L1.50409 10.3865L2.42281 11.3104L1.2928 11.9589L0.79501 11.0916ZM0.7217 11.1337L-0.144717 11.633L-0.644913 10.7651L0.223907 10.2664L0.7217 11.1337ZM22.8637 49.5549L23.7301 49.0556L24.1221 49.7357L23.5545 50.278L22.8637 49.5549ZM17.2922 88.4961L16.4258 88.9954L17.2922 88.4961ZM60.9319 100.26L60.4341 99.3931L60.9319 100.26ZM72.6892 56.7019L71.8228 57.2012L71.8228 57.2012L72.6892 56.7019ZM37.4381 41.5855L37.6739 42.5573L36.9458 42.7339L36.5717 42.0848L37.4381 41.5855ZM15.1249 2.86722L14.6271 1.99993L15.4929 1.503L15.9914 2.36791L15.1249 2.86722ZM15.6725 1.8141C15.8254 2.07929 15.9398 2.35923 16.0178 2.64923L14.0865 3.16875C14.0523 3.04185 14.0035 2.92348 13.9397 2.81271L15.6725 1.8141ZM4.87497 1.70675C6.97843 0.499504 9.18867 -0.161391 11.0911 -0.213956C12.947 -0.265237 14.7848 0.2736 15.6725 1.81409L13.9397 2.81272C13.5949 2.21443 12.7046 1.74222 11.1464 1.78528C9.63457 1.82705 7.74441 2.36587 5.87052 3.44136L4.87497 1.70675ZM-0.463525 11.0792C-1.35189 9.53771 -0.893878 7.67958 0.0844951 6.10354C1.08721 4.48828 2.77157 2.91396 4.87497 1.70675L5.87052 3.44136C3.99658 4.51688 2.57972 5.87609 1.78371 7.15838C0.963344 8.47988 0.925103 9.48331 1.26932 10.0806L-0.463525 11.0792ZM0.0859344 11.7968C-0.125834 11.5838 -0.310693 11.3444 -0.463538 11.0792L1.26932 10.0806C1.33314 10.1913 1.41117 10.2931 1.50409 10.3865L0.0859344 11.7968ZM1.2928 11.9589L1.21949 12.001L0.223907 10.2664L0.297218 10.2243L1.2928 11.9589ZM1.58812 10.6344L23.7301 49.0556L21.9973 50.0543L-0.144717 11.633L1.58812 10.6344ZM23.5545 50.278C13.5068 59.8776 10.9088 75.4169 18.1586 87.9968L16.4258 88.9954C8.70517 75.5985 11.4745 59.0533 22.1729 48.8319L23.5545 50.278ZM18.1586 87.9968C26.6871 102.796 45.6148 107.898 60.4341 99.3931L61.4296 101.128C45.654 110.182 25.5054 104.751 16.4258 88.9954L18.1586 87.9968ZM60.4341 99.3931C75.2522 90.8885 80.3506 71.9988 71.8228 57.2012L73.5556 56.2026C82.636 71.9589 77.2065 92.0729 61.4296 101.128L60.4341 99.3931ZM71.8228 57.2012C64.796 45.0082 50.7076 39.3952 37.6739 42.5573L37.2023 40.6137C51.0749 37.2481 66.073 43.2186 73.5556 56.2026L71.8228 57.2012ZM36.5717 42.0848L14.2585 3.36653L15.9914 2.36791L38.3045 41.0862L36.5717 42.0848ZM15.6227 3.73451L15.5499 3.77628L14.5544 2.0417L14.6271 1.99993L15.6227 3.73451Z" fill="black" mask="url(#path-1-inside-1)"/>
<defs>
<linearGradient id="paint0_linear" x1="44.7809" y1="6.57163" x2="27.9647" y2="101.993" gradientUnits="userSpaceOnUse">
<stop stop-color="#15339C"/>
<stop offset="1" stop-color="#99D5BC"/>
</linearGradient>
</defs>
</svg>
