<svg width="78" height="105" viewBox="0 0 78 105" fill="none" xmlns="http://www.w3.org/2000/svg">
<mask id="path-1-inside-1" fill="white">
<path fill-rule="evenodd" clip-rule="evenodd" d="M62.6934 2.90923C62.7495 2.70078 62.8311 2.50163 62.9395 2.31365C64.172 0.174869 68.3955 0.291568 72.3729 2.5743C76.3502 4.85703 78.5753 8.44137 77.3427 10.5801C77.2344 10.7681 77.1029 10.9387 76.9506 11.0919L77.0239 11.134L54.8819 49.5552C65.255 59.4657 67.9386 75.508 60.4534 88.4964C51.6494 103.773 32.1112 109.04 16.8137 100.261C1.51627 91.4809 -3.74768 71.9791 5.05638 56.7022C12.3111 44.1136 26.8543 38.3219 40.3075 41.5857L62.6207 2.86746L62.6934 2.90923Z"/>
</mask>
<path fill-rule="evenodd" clip-rule="evenodd" d="M62.6934 2.90923C62.7495 2.70078 62.8311 2.50163 62.9395 2.31365C64.172 0.174869 68.3955 0.291568 72.3729 2.5743C76.3502 4.85703 78.5753 8.44137 77.3427 10.5801C77.2344 10.7681 77.1029 10.9387 76.9506 11.0919L77.0239 11.134L54.8819 49.5552C65.255 59.4657 67.9386 75.508 60.4534 88.4964C51.6494 103.773 32.1112 109.04 16.8137 100.261C1.51627 91.4809 -3.74768 71.9791 5.05638 56.7022C12.3111 44.1136 26.8543 38.3219 40.3075 41.5857L62.6207 2.86746L62.6934 2.90923Z" fill="#15339C"/>
<path fill-rule="evenodd" clip-rule="evenodd" d="M62.6934 2.90923C62.7495 2.70078 62.8311 2.50163 62.9395 2.31365C64.172 0.174869 68.3955 0.291568 72.3729 2.5743C76.3502 4.85703 78.5753 8.44137 77.3427 10.5801C77.2344 10.7681 77.1029 10.9387 76.9506 11.0919L77.0239 11.134L54.8819 49.5552C65.255 59.4657 67.9386 75.508 60.4534 88.4964C51.6494 103.773 32.1112 109.04 16.8137 100.261C1.51627 91.4809 -3.74768 71.9791 5.05638 56.7022C12.3111 44.1136 26.8543 38.3219 40.3075 41.5857L62.6207 2.86746L62.6934 2.90923Z" fill="url(#paint0_linear)"/>
<path d="M62.9395 2.31365L62.0731 1.81433L62.0731 1.81434L62.9395 2.31365ZM62.6934 2.90923L62.1957 3.77653L63.3218 4.42291L63.6591 3.16899L62.6934 2.90923ZM72.3729 2.5743L72.8706 1.70699L72.3729 2.5743ZM77.3427 10.5801L76.4763 10.0808L76.4763 10.0808L77.3427 10.5801ZM76.9506 11.0919L76.2415 10.3868L75.3228 11.3106L76.4528 11.9592L76.9506 11.0919ZM77.0239 11.134L77.8903 11.6333L78.3905 10.7653L77.5217 10.2667L77.0239 11.134ZM54.8819 49.5552L54.0155 49.0559L53.6235 49.736L54.1911 50.2782L54.8819 49.5552ZM60.4534 88.4964L61.3198 88.9957L60.4534 88.4964ZM16.8137 100.261L17.3115 99.3934L16.8137 100.261ZM5.05638 56.7022L5.9228 57.2015L5.92281 57.2015L5.05638 56.7022ZM40.3075 41.5857L40.0717 42.5575L40.7998 42.7342L41.1739 42.085L40.3075 41.5857ZM62.6207 2.86746L63.1185 2.00017L62.2527 1.50324L61.7542 2.36815L62.6207 2.86746ZM62.0731 1.81434C61.9202 2.07953 61.8058 2.35947 61.7278 2.64947L63.6591 3.16899C63.6933 3.04209 63.7421 2.92372 63.8059 2.81295L62.0731 1.81434ZM72.8706 1.70699C70.7672 0.499748 68.5569 -0.161147 66.6545 -0.213712C64.7986 -0.264993 62.9608 0.273844 62.0731 1.81433L63.8059 2.81296C64.1507 2.21467 65.041 1.74247 66.5993 1.78553C68.111 1.8273 70.0012 2.36612 71.8751 3.4416L72.8706 1.70699ZM78.2091 11.0795C79.0975 9.53796 78.6395 7.67983 77.6611 6.10379C76.6584 4.48853 74.974 2.9142 72.8706 1.70699L71.8751 3.4416C73.749 4.51712 75.1659 5.87633 75.9619 7.15862C76.7823 8.48013 76.8205 9.48355 76.4763 10.0808L78.2091 11.0795ZM77.6597 11.797C77.8714 11.5841 78.0563 11.3447 78.2091 11.0794L76.4763 10.0808C76.4125 10.1916 76.3344 10.2933 76.2415 10.3868L77.6597 11.797ZM76.4528 11.9592L76.5261 12.0013L77.5217 10.2667L77.4484 10.2246L76.4528 11.9592ZM76.1575 10.6346L54.0155 49.0559L55.7483 50.0545L77.8903 11.6333L76.1575 10.6346ZM54.1911 50.2782C64.2388 59.8779 66.8368 75.4171 59.587 87.9971L61.3198 88.9957C69.0404 75.5988 66.2712 59.0535 55.5727 48.8321L54.1911 50.2782ZM59.587 87.9971C51.0585 102.796 32.1308 107.899 17.3115 99.3934L16.316 101.128C32.0916 110.182 52.2402 104.751 61.3198 88.9957L59.587 87.9971ZM17.3115 99.3934C2.49338 90.8887 -2.605 71.9991 5.9228 57.2015L4.18996 56.2028C-4.89036 71.9592 0.53915 92.0731 16.316 101.128L17.3115 99.3934ZM5.92281 57.2015C12.9496 45.0084 27.038 39.3955 40.0717 42.5575L40.5433 40.6139C26.6707 37.2484 11.6726 43.2189 4.18996 56.2028L5.92281 57.2015ZM41.1739 42.085L63.4871 3.36678L61.7542 2.36815L39.4411 41.0864L41.1739 42.085ZM62.1229 3.73476L62.1957 3.77653L63.1912 2.04194L63.1185 2.00017L62.1229 3.73476Z" fill="black" mask="url(#path-1-inside-1)"/>
<defs>
<linearGradient id="paint0_linear" x1="32.9647" y1="6.57188" x2="49.7809" y2="101.994" gradientUnits="userSpaceOnUse">
<stop stop-color="#99D5BC"/>
<stop offset="1" stop-color="#FC2525"/>
</linearGradient>
</defs>
</svg>
