<svg width="77" height="66" viewBox="0 0 77 66" fill="none" xmlns="http://www.w3.org/2000/svg">
<mask id="path-1-inside-1" fill="white">
<path fill-rule="evenodd" clip-rule="evenodd" d="M15.0522 -36.091C14.9961 -36.2995 14.9145 -36.4986 14.8061 -36.6866C13.5736 -38.8254 9.35009 -38.7087 5.37275 -36.4259C1.3954 -34.1432 -0.829677 -30.5589 0.402892 -28.4201C0.511223 -28.2321 0.642666 -28.0616 0.79501 -27.9084L0.7217 -27.8663L22.8637 10.5549C12.4906 20.4654 9.80701 36.5077 17.2922 49.4961C26.0962 64.7731 45.6344 70.0402 60.9319 61.2604C76.2293 52.4807 81.4933 32.9789 72.6892 17.7019C65.4345 5.11339 50.8913 -0.678318 37.4381 2.58547L15.1249 -36.1328L15.0522 -36.091Z"/>
</mask>
<path fill-rule="evenodd" clip-rule="evenodd" d="M15.0522 -36.091C14.9961 -36.2995 14.9145 -36.4986 14.8061 -36.6866C13.5736 -38.8254 9.35009 -38.7087 5.37275 -36.4259C1.3954 -34.1432 -0.829677 -30.5589 0.402892 -28.4201C0.511223 -28.2321 0.642666 -28.0616 0.79501 -27.9084L0.7217 -27.8663L22.8637 10.5549C12.4906 20.4654 9.80701 36.5077 17.2922 49.4961C26.0962 64.7731 45.6344 70.0402 60.9319 61.2604C76.2293 52.4807 81.4933 32.9789 72.6892 17.7019C65.4345 5.11339 50.8913 -0.678318 37.4381 2.58547L15.1249 -36.1328L15.0522 -36.091Z" fill="#15339C"/>
<path fill-rule="evenodd" clip-rule="evenodd" d="M15.0522 -36.091C14.9961 -36.2995 14.9145 -36.4986 14.8061 -36.6866C13.5736 -38.8254 9.35009 -38.7087 5.37275 -36.4259C1.3954 -34.1432 -0.829677 -30.5589 0.402892 -28.4201C0.511223 -28.2321 0.642666 -28.0616 0.79501 -27.9084L0.7217 -27.8663L22.8637 10.5549C12.4906 20.4654 9.80701 36.5077 17.2922 49.4961C26.0962 64.7731 45.6344 70.0402 60.9319 61.2604C76.2293 52.4807 81.4933 32.9789 72.6892 17.7019C65.4345 5.11339 50.8913 -0.678318 37.4381 2.58547L15.1249 -36.1328L15.0522 -36.091Z" fill="url(#paint0_linear)"/>
<path d="M14.8061 -36.6866L15.6725 -37.1859L15.6725 -37.1859L14.8061 -36.6866ZM15.0522 -36.091L15.5499 -35.2237L14.4238 -34.5773L14.0865 -35.8312L15.0522 -36.091ZM5.37275 -36.4259L4.87497 -37.2933L5.37275 -36.4259ZM0.402892 -28.4201L1.26932 -28.9194L1.26932 -28.9194L0.402892 -28.4201ZM0.79501 -27.9084L1.50409 -28.6135L2.42281 -27.6896L1.2928 -27.0411L0.79501 -27.9084ZM0.7217 -27.8663L-0.144717 -27.367L-0.644913 -28.2349L0.223907 -28.7336L0.7217 -27.8663ZM22.8637 10.5549L23.7301 10.0556L24.1221 10.7357L23.5545 11.278L22.8637 10.5549ZM17.2922 49.4961L16.4258 49.9954L17.2922 49.4961ZM60.9319 61.2604L60.4341 60.3931L60.9319 61.2604ZM72.6892 17.7019L71.8228 18.2012L71.8228 18.2012L72.6892 17.7019ZM37.4381 2.58547L37.6739 3.55728L36.9458 3.73391L36.5717 3.08478L37.4381 2.58547ZM15.1249 -36.1328L14.6271 -37.0001L15.4929 -37.497L15.9914 -36.6321L15.1249 -36.1328ZM15.6725 -37.1859C15.8254 -36.9207 15.9398 -36.6408 16.0178 -36.3508L14.0865 -35.8312C14.0523 -35.9582 14.0035 -36.0765 13.9397 -36.1873L15.6725 -37.1859ZM4.87497 -37.2933C6.97843 -38.5005 9.18867 -39.1614 11.0911 -39.214C12.947 -39.2652 14.7848 -38.7264 15.6725 -37.1859L13.9397 -36.1873C13.5949 -36.7856 12.7046 -37.2578 11.1464 -37.2147C9.63457 -37.1729 7.74441 -36.6341 5.87052 -35.5586L4.87497 -37.2933ZM-0.463525 -27.9208C-1.35189 -29.4623 -0.893878 -31.3204 0.0844951 -32.8965C1.08721 -34.5117 2.77157 -36.086 4.87497 -37.2933L5.87052 -35.5586C3.99658 -34.4831 2.57972 -33.1239 1.78371 -31.8416C0.963344 -30.5201 0.925103 -29.5167 1.26932 -28.9194L-0.463525 -27.9208ZM0.0859344 -27.2032C-0.125834 -27.4162 -0.310693 -27.6556 -0.463538 -27.9208L1.26932 -28.9194C1.33314 -28.8087 1.41117 -28.7069 1.50409 -28.6135L0.0859344 -27.2032ZM1.2928 -27.0411L1.21949 -26.999L0.223907 -28.7336L0.297218 -28.7757L1.2928 -27.0411ZM1.58812 -28.3656L23.7301 10.0556L21.9973 11.0543L-0.144717 -27.367L1.58812 -28.3656ZM23.5545 11.278C13.5068 20.8776 10.9088 36.4169 18.1586 48.9968L16.4258 49.9954C8.70517 36.5985 11.4745 20.0533 22.1729 9.8319L23.5545 11.278ZM18.1586 48.9968C26.6871 63.7956 45.6148 68.8984 60.4341 60.3931L61.4296 62.1277C45.654 71.1819 25.5054 65.7506 16.4258 49.9954L18.1586 48.9968ZM60.4341 60.3931C75.2522 51.8885 80.3506 32.9988 71.8228 18.2012L73.5556 17.2026C82.636 32.9589 77.2065 53.0729 61.4296 62.1277L60.4341 60.3931ZM71.8228 18.2012C64.796 6.00817 50.7076 0.395246 37.6739 3.55728L37.2023 1.61366C51.0749 -1.75188 66.073 4.21862 73.5556 17.2026L71.8228 18.2012ZM36.5717 3.08478L14.2585 -35.6335L15.9914 -36.6321L38.3045 2.08615L36.5717 3.08478ZM15.6227 -35.2655L15.5499 -35.2237L14.5544 -36.9583L14.6271 -37.0001L15.6227 -35.2655Z" fill="black" mask="url(#path-1-inside-1)"/>
<defs>
<linearGradient id="paint0_linear" x1="44.7809" y1="-32.4284" x2="27.9647" y2="62.9933" gradientUnits="userSpaceOnUse">
<stop stop-color="#FC2525"/>
<stop offset="1" stop-color="#15339C"/>
</linearGradient>
</defs>
</svg>
