<svg width="78" height="105" viewBox="0 0 78 105" fill="none" xmlns="http://www.w3.org/2000/svg">
<mask id="path-1-inside-1" fill="white">
<path fill-rule="evenodd" clip-rule="evenodd" d="M62.6934 2.90899C62.7495 2.70054 62.8311 2.50139 62.9395 2.3134C64.172 0.174625 68.3955 0.291323 72.3729 2.57405C76.3502 4.85678 78.5753 8.44112 77.3427 10.5799C77.2344 10.7679 77.1029 10.9384 76.9506 11.0916L77.0239 11.1337L54.8819 49.5549C65.255 59.4654 67.9386 75.5077 60.4534 88.4961C51.6494 103.773 32.1112 109.04 16.8137 100.26C1.51627 91.4807 -3.74768 71.9789 5.05638 56.7019C12.3111 44.1134 26.8543 38.3217 40.3075 41.5855L62.6207 2.86722L62.6934 2.90899Z"/>
</mask>
<path fill-rule="evenodd" clip-rule="evenodd" d="M62.6934 2.90899C62.7495 2.70054 62.8311 2.50139 62.9395 2.3134C64.172 0.174625 68.3955 0.291323 72.3729 2.57405C76.3502 4.85678 78.5753 8.44112 77.3427 10.5799C77.2344 10.7679 77.1029 10.9384 76.9506 11.0916L77.0239 11.1337L54.8819 49.5549C65.255 59.4654 67.9386 75.5077 60.4534 88.4961C51.6494 103.773 32.1112 109.04 16.8137 100.26C1.51627 91.4807 -3.74768 71.9789 5.05638 56.7019C12.3111 44.1134 26.8543 38.3217 40.3075 41.5855L62.6207 2.86722L62.6934 2.90899Z" fill="#15339C"/>
<path fill-rule="evenodd" clip-rule="evenodd" d="M62.6934 2.90899C62.7495 2.70054 62.8311 2.50139 62.9395 2.3134C64.172 0.174625 68.3955 0.291323 72.3729 2.57405C76.3502 4.85678 78.5753 8.44112 77.3427 10.5799C77.2344 10.7679 77.1029 10.9384 76.9506 11.0916L77.0239 11.1337L54.8819 49.5549C65.255 59.4654 67.9386 75.5077 60.4534 88.4961C51.6494 103.773 32.1112 109.04 16.8137 100.26C1.51627 91.4807 -3.74768 71.9789 5.05638 56.7019C12.3111 44.1134 26.8543 38.3217 40.3075 41.5855L62.6207 2.86722L62.6934 2.90899Z" fill="url(#paint0_linear)"/>
<path d="M62.9395 2.3134L62.0731 1.81409L62.0731 1.8141L62.9395 2.3134ZM62.6934 2.90899L62.1957 3.77628L63.3218 4.42267L63.6591 3.16875L62.6934 2.90899ZM72.3729 2.57405L72.8706 1.70675L72.3729 2.57405ZM77.3427 10.5799L76.4763 10.0806L76.4763 10.0806L77.3427 10.5799ZM76.9506 11.0916L76.2415 10.3865L75.3228 11.3104L76.4528 11.9589L76.9506 11.0916ZM77.0239 11.1337L77.8903 11.633L78.3905 10.7651L77.5217 10.2664L77.0239 11.1337ZM54.8819 49.5549L54.0155 49.0556L53.6235 49.7357L54.1911 50.278L54.8819 49.5549ZM60.4534 88.4961L61.3198 88.9954L60.4534 88.4961ZM16.8137 100.26L17.3115 99.3931L16.8137 100.26ZM5.05638 56.7019L5.9228 57.2012L5.92281 57.2012L5.05638 56.7019ZM40.3075 41.5855L40.0717 42.5573L40.7998 42.7339L41.1739 42.0848L40.3075 41.5855ZM62.6207 2.86722L63.1185 1.99993L62.2527 1.503L61.7542 2.36791L62.6207 2.86722ZM62.0731 1.8141C61.9202 2.07929 61.8058 2.35923 61.7278 2.64923L63.6591 3.16875C63.6933 3.04185 63.7421 2.92348 63.8059 2.81271L62.0731 1.8141ZM72.8706 1.70675C70.7672 0.499504 68.5569 -0.161391 66.6545 -0.213956C64.7986 -0.265237 62.9608 0.2736 62.0731 1.81409L63.8059 2.81272C64.1507 2.21443 65.041 1.74222 66.5993 1.78528C68.111 1.82705 70.0012 2.36587 71.8751 3.44136L72.8706 1.70675ZM78.2091 11.0792C79.0975 9.53771 78.6395 7.67958 77.6611 6.10354C76.6584 4.48828 74.974 2.91396 72.8706 1.70675L71.8751 3.44136C73.749 4.51688 75.1659 5.87609 75.9619 7.15838C76.7823 8.47988 76.8205 9.48331 76.4763 10.0806L78.2091 11.0792ZM77.6597 11.7968C77.8714 11.5838 78.0563 11.3444 78.2091 11.0792L76.4763 10.0806C76.4125 10.1913 76.3344 10.2931 76.2415 10.3865L77.6597 11.7968ZM76.4528 11.9589L76.5261 12.001L77.5217 10.2664L77.4484 10.2243L76.4528 11.9589ZM76.1575 10.6344L54.0155 49.0556L55.7483 50.0543L77.8903 11.633L76.1575 10.6344ZM54.1911 50.278C64.2388 59.8776 66.8368 75.4169 59.587 87.9968L61.3198 88.9954C69.0404 75.5985 66.2712 59.0533 55.5727 48.8319L54.1911 50.278ZM59.587 87.9968C51.0585 102.796 32.1308 107.898 17.3115 99.3931L16.316 101.128C32.0916 110.182 52.2402 104.751 61.3198 88.9954L59.587 87.9968ZM17.3115 99.3931C2.49338 90.8885 -2.605 71.9988 5.9228 57.2012L4.18996 56.2026C-4.89036 71.9589 0.53915 92.0729 16.316 101.128L17.3115 99.3931ZM5.92281 57.2012C12.9496 45.0082 27.038 39.3952 40.0717 42.5573L40.5433 40.6137C26.6707 37.2481 11.6726 43.2186 4.18996 56.2026L5.92281 57.2012ZM41.1739 42.0848L63.4871 3.36653L61.7542 2.36791L39.4411 41.0862L41.1739 42.0848ZM62.1229 3.73451L62.1957 3.77628L63.1912 2.0417L63.1185 1.99993L62.1229 3.73451Z" fill="black" mask="url(#path-1-inside-1)"/>
<defs>
<linearGradient id="paint0_linear" x1="32.9647" y1="6.57163" x2="49.7809" y2="101.993" gradientUnits="userSpaceOnUse">
<stop stop-color="#15339C"/>
<stop offset="1" stop-color="#99D5BC"/>
</linearGradient>
</defs>
</svg>
