<svg width="77" height="105" viewBox="0 0 77 105" fill="none" xmlns="http://www.w3.org/2000/svg">
<mask id="path-1-inside-1" fill="white">
<path fill-rule="evenodd" clip-rule="evenodd" d="M15.0522 2.90923C14.9961 2.70078 14.9145 2.50163 14.8061 2.31365C13.5736 0.174869 9.35009 0.291568 5.37275 2.5743C1.3954 4.85703 -0.829677 8.44137 0.402892 10.5801C0.511223 10.7681 0.642666 10.9387 0.79501 11.0919L0.7217 11.134L22.8637 49.5552C12.4906 59.4657 9.80701 75.508 17.2922 88.4964C26.0962 103.773 45.6344 109.04 60.9319 100.261C76.2293 91.4809 81.4933 71.9791 72.6892 56.7022C65.4345 44.1136 50.8913 38.3219 37.4381 41.5857L15.1249 2.86746L15.0522 2.90923Z"/>
</mask>
<path fill-rule="evenodd" clip-rule="evenodd" d="M15.0522 2.90923C14.9961 2.70078 14.9145 2.50163 14.8061 2.31365C13.5736 0.174869 9.35009 0.291568 5.37275 2.5743C1.3954 4.85703 -0.829677 8.44137 0.402892 10.5801C0.511223 10.7681 0.642666 10.9387 0.79501 11.0919L0.7217 11.134L22.8637 49.5552C12.4906 59.4657 9.80701 75.508 17.2922 88.4964C26.0962 103.773 45.6344 109.04 60.9319 100.261C76.2293 91.4809 81.4933 71.9791 72.6892 56.7022C65.4345 44.1136 50.8913 38.3219 37.4381 41.5857L15.1249 2.86746L15.0522 2.90923Z" fill="#C4C4C4"/>
<path fill-rule="evenodd" clip-rule="evenodd" d="M15.0522 2.90923C14.9961 2.70078 14.9145 2.50163 14.8061 2.31365C13.5736 0.174869 9.35009 0.291568 5.37275 2.5743C1.3954 4.85703 -0.829677 8.44137 0.402892 10.5801C0.511223 10.7681 0.642666 10.9387 0.79501 11.0919L0.7217 11.134L22.8637 49.5552C12.4906 59.4657 9.80701 75.508 17.2922 88.4964C26.0962 103.773 45.6344 109.04 60.9319 100.261C76.2293 91.4809 81.4933 71.9791 72.6892 56.7022C65.4345 44.1136 50.8913 38.3219 37.4381 41.5857L15.1249 2.86746L15.0522 2.90923Z" fill="url(#paint0_linear)"/>
<path d="M14.8061 2.31365L15.6725 1.81433L15.6725 1.81434L14.8061 2.31365ZM15.0522 2.90923L15.5499 3.77653L14.4238 4.42291L14.0865 3.16899L15.0522 2.90923ZM5.37275 2.5743L4.87497 1.70699L5.37275 2.5743ZM0.402892 10.5801L1.26932 10.0808L1.26932 10.0808L0.402892 10.5801ZM0.79501 11.0919L1.50409 10.3868L2.42281 11.3106L1.2928 11.9592L0.79501 11.0919ZM0.7217 11.134L-0.144717 11.6333L-0.644913 10.7653L0.223907 10.2667L0.7217 11.134ZM22.8637 49.5552L23.7301 49.0559L24.1221 49.736L23.5545 50.2782L22.8637 49.5552ZM17.2922 88.4964L16.4258 88.9957L17.2922 88.4964ZM60.9319 100.261L60.4341 99.3934L60.9319 100.261ZM72.6892 56.7022L71.8228 57.2015L71.8228 57.2015L72.6892 56.7022ZM37.4381 41.5857L37.6739 42.5575L36.9458 42.7342L36.5717 42.085L37.4381 41.5857ZM15.1249 2.86746L14.6271 2.00017L15.4929 1.50324L15.9914 2.36815L15.1249 2.86746ZM15.6725 1.81434C15.8254 2.07953 15.9398 2.35947 16.0178 2.64947L14.0865 3.16899C14.0523 3.04209 14.0035 2.92372 13.9397 2.81295L15.6725 1.81434ZM4.87497 1.70699C6.97843 0.499748 9.18867 -0.161147 11.0911 -0.213712C12.947 -0.264993 14.7848 0.273844 15.6725 1.81433L13.9397 2.81296C13.5949 2.21467 12.7046 1.74247 11.1464 1.78553C9.63457 1.8273 7.74441 2.36612 5.87052 3.4416L4.87497 1.70699ZM-0.463525 11.0795C-1.35189 9.53796 -0.893878 7.67983 0.0844951 6.10379C1.08721 4.48853 2.77157 2.9142 4.87497 1.70699L5.87052 3.4416C3.99658 4.51712 2.57972 5.87633 1.78371 7.15862C0.963344 8.48013 0.925103 9.48355 1.26932 10.0808L-0.463525 11.0795ZM0.0859344 11.797C-0.125834 11.5841 -0.310693 11.3447 -0.463538 11.0794L1.26932 10.0808C1.33314 10.1916 1.41117 10.2933 1.50409 10.3868L0.0859344 11.797ZM1.2928 11.9592L1.21949 12.0013L0.223907 10.2667L0.297218 10.2246L1.2928 11.9592ZM1.58812 10.6346L23.7301 49.0559L21.9973 50.0545L-0.144717 11.6333L1.58812 10.6346ZM23.5545 50.2782C13.5068 59.8779 10.9088 75.4171 18.1586 87.9971L16.4258 88.9957C8.70517 75.5988 11.4745 59.0535 22.1729 48.8321L23.5545 50.2782ZM18.1586 87.9971C26.6871 102.796 45.6148 107.899 60.4341 99.3934L61.4296 101.128C45.654 110.182 25.5054 104.751 16.4258 88.9957L18.1586 87.9971ZM60.4341 99.3934C75.2522 90.8887 80.3506 71.9991 71.8228 57.2015L73.5556 56.2028C82.636 71.9592 77.2065 92.0731 61.4296 101.128L60.4341 99.3934ZM71.8228 57.2015C64.796 45.0084 50.7076 39.3955 37.6739 42.5575L37.2023 40.6139C51.0749 37.2484 66.073 43.2189 73.5556 56.2028L71.8228 57.2015ZM36.5717 42.085L14.2585 3.36678L15.9914 2.36815L38.3045 41.0864L36.5717 42.085ZM15.6227 3.73476L15.5499 3.77653L14.5544 2.04194L14.6271 2.00017L15.6227 3.73476Z" fill="black" mask="url(#path-1-inside-1)"/>
<defs>
<linearGradient id="paint0_linear" x1="44.7809" y1="6.57188" x2="27.9647" y2="101.994" gradientUnits="userSpaceOnUse">
<stop stop-color="#FC2525"/>
<stop offset="1" stop-color="#99D5BC"/>
</linearGradient>
</defs>
</svg>
